<svg xmlns="http://www.w3.org/2000/svg" xmlns:xlink="http://www.w3.org/1999/xlink" width="500" zoomAndPan="magnify" viewBox="0 0 375 374.999991" height="500" preserveAspectRatio="xMidYMid meet" version="1.0"><defs><g/><clipPath id="a30d138476"><rect x="0" width="158" y="0" height="52"/></clipPath><clipPath id="f81ee2ac58"><path d="M 142 145.460938 L 232 145.460938 L 232 195 L 142 195 Z M 142 145.460938 " clip-rule="nonzero"/></clipPath><clipPath id="bc911be993"><path d="M 124.253906 191.855469 L 250.746094 191.855469 L 250.746094 205.859375 L 124.253906 205.859375 Z M 124.253906 191.855469 " clip-rule="nonzero"/></clipPath><clipPath id="2734d829f6"><rect x="0" width="225" y="0" height="86"/></clipPath></defs><g transform="matrix(1, 0, 0, 1, 110, 100)"><g clip-path="url(#a30d138476)"><g fill="#ffffff" fill-opacity="1"><g transform="translate(11.482988, 44.403396)"><g><path d="M 7.84375 -27.046875 L 19.640625 -11.6875 L 17.765625 -10.59375 L 8.515625 -22.671875 L 9.34375 -6.140625 L 9.265625 -6.09375 L -4.515625 -14.609375 L 1.390625 -0.78125 L 0.9375 -0.515625 L -6.671875 -18.390625 L -6.59375 -18.4375 L 8.71875 -8.953125 L 7.78125 -27.015625 Z M 7.84375 -27.046875 "/></g></g></g><g fill="#ffffff" fill-opacity="1"><g transform="translate(32.018114, 32.528554)"><g><path d="M 7.125 -22.796875 L 7.640625 -23 L 5.5625 -11.46875 L 8.65625 -3.203125 L 6.625 -2.4375 L 3.734375 -10.15625 L -5.703125 -18.015625 L -3.375 -18.875 L 5.109375 -11.8125 Z M 7.125 -22.796875 "/></g></g></g><g fill="#ffffff" fill-opacity="1"><g transform="translate(47.309131, 27.064399)"><g/></g></g><g fill="#ffffff" fill-opacity="1"><g transform="translate(54.362912, 24.651878)"><g><path d="M 18.421875 -21.3125 L 22.734375 -2.40625 L 20.5625 -2.203125 L 17.203125 -17.03125 L 11.0625 -1.671875 L 10.96875 -1.671875 L 2.015625 -15.171875 L 1.578125 -0.140625 L 1.078125 -0.078125 L 1.625 -19.5 L 1.71875 -19.515625 L 11.671875 -4.484375 L 18.34375 -21.296875 Z M 18.421875 -21.3125 "/></g></g></g><g fill="#ffffff" fill-opacity="1"><g transform="translate(77.924973, 22.327957)"><g><path d="M 15.640625 1.375 L 13.078125 -6.46875 L 5.75 -7.09375 L 1.734375 0.1875 L 1.046875 0.125 L 11.234375 -18.3125 L 11.421875 -18.296875 L 17.953125 1.578125 Z M 6.015625 -7.5625 L 12.890625 -6.96875 L 10.203125 -15.15625 Z M 6.015625 -7.5625 "/></g></g></g><g fill="#ffffff" fill-opacity="1"><g transform="translate(96.741298, 24.066763)"><g><path d="M 14.234375 3.546875 L 11.609375 2.90625 L 6.9375 -7.28125 L 5.59375 -7.625 L 3.5 0.890625 L 1.390625 0.375 L 5.921875 -17.96875 C 5.921875 -17.96875 6.140625 -17.910156 6.578125 -17.796875 C 7.023438 -17.691406 7.554688 -17.5625 8.171875 -17.40625 C 8.796875 -17.257812 9.414062 -17.109375 10.03125 -16.953125 C 10.644531 -16.804688 11.125 -16.6875 11.46875 -16.59375 C 11.84375 -16.5 12.34375 -16.316406 12.96875 -16.046875 C 13.59375 -15.785156 14.191406 -15.414062 14.765625 -14.9375 C 15.347656 -14.457031 15.789062 -13.859375 16.09375 -13.140625 C 16.40625 -12.421875 16.4375 -11.566406 16.1875 -10.578125 C 15.957031 -9.617188 15.585938 -8.867188 15.078125 -8.328125 C 14.578125 -7.796875 14 -7.410156 13.34375 -7.171875 C 12.6875 -6.929688 12.019531 -6.789062 11.34375 -6.75 C 10.675781 -6.707031 10.0625 -6.710938 9.5 -6.765625 Z M 7.90625 -16.953125 L 5.71875 -8.125 L 7.28125 -7.734375 C 9 -7.304688 10.4375 -7.300781 11.59375 -7.71875 C 12.75 -8.132812 13.53125 -9.144531 13.9375 -10.75 C 14.332031 -12.375 14.1875 -13.625 13.5 -14.5 C 12.8125 -15.375 11.722656 -16 10.234375 -16.375 Z M 7.90625 -16.953125 "/></g></g></g><g fill="#ffffff" fill-opacity="1"><g transform="translate(111.968887, 28.085208)"><g><path d="M 1.625 0.609375 L 7.9375 -17.203125 L 9.984375 -16.46875 L 3.671875 1.34375 Z M 1.625 0.609375 "/></g></g></g><g fill="#ffffff" fill-opacity="1"><g transform="translate(117.569004, 29.706836)"><g><path d="M 23.328125 -9.65625 L 14.875 7.8125 L 14.796875 7.78125 L 8.640625 -13.375 L 1.75 0.875 L 1.28125 0.65625 L 9.671875 -16.671875 L 9.75 -16.625 L 15.921875 4.484375 L 22.875 -9.875 Z M 23.328125 -9.65625 "/></g></g></g><g fill="#ffffff" fill-opacity="1"><g transform="translate(133.884823, 37.82336)"><g><path d="M 19.34375 -9.125 L 13.1875 -13.25 L 8.609375 -6.390625 L 14.09375 -2.71875 L 13.8125 -2.296875 L 8.328125 -5.96875 L 3.265625 1.59375 L 9.421875 5.71875 L 9.140625 6.15625 L 1.171875 0.828125 L 11.671875 -14.875 L 11.75 -14.828125 L 19.640625 -9.546875 Z M 19.34375 -9.125 "/></g></g></g></g></g><path fill="#ffffff" d="M 181.945312 188.703125 L 178.5625 188.703125 C 178.789062 187.410156 179.296875 186.214844 180.023438 185.183594 L 182.414062 187.574219 C 182.21875 187.929688 182.0625 188.308594 181.945312 188.703125 Z M 185.71875 181.542969 L 185.71875 184.929688 C 185.324219 185.042969 184.945312 185.203125 184.589844 185.398438 L 182.199219 183.007812 C 183.234375 182.28125 184.429688 181.773438 185.71875 181.542969 Z M 188.796875 181.542969 C 190.089844 181.773438 191.285156 182.28125 192.316406 183.007812 L 189.925781 185.398438 C 189.570312 185.203125 189.195312 185.042969 188.796875 184.929688 Z M 194.496094 185.183594 C 195.21875 186.214844 195.730469 187.410156 195.957031 188.703125 L 192.570312 188.703125 C 192.457031 188.304688 192.296875 187.925781 192.101562 187.574219 Z M 184.578125 190.839844 L 184.988281 190.113281 L 185.625 191.234375 C 186.03125 191.394531 186.425781 191.558594 186.816406 191.722656 L 186.816406 188.972656 L 185.953125 188.972656 C 185.871094 189.121094 185.710938 189.222656 185.53125 189.222656 C 185.265625 189.222656 185.054688 189.007812 185.054688 188.742188 C 185.054688 188.480469 185.265625 188.265625 185.53125 188.265625 C 185.710938 188.265625 185.871094 188.367188 185.953125 188.515625 L 186.816406 188.515625 L 186.816406 187.828125 C 186.5 187.667969 186.285156 187.339844 186.285156 186.957031 C 186.285156 186.421875 186.71875 185.984375 187.257812 185.984375 C 187.796875 185.984375 188.234375 186.421875 188.234375 186.957031 C 188.234375 187.339844 188.015625 187.667969 187.699219 187.828125 L 187.699219 188.515625 L 188.566406 188.515625 C 188.648438 188.367188 188.804688 188.265625 188.988281 188.265625 C 189.25 188.265625 189.464844 188.480469 189.464844 188.742188 C 189.464844 189.007812 189.25 189.222656 188.988281 189.222656 C 188.804688 189.222656 188.648438 189.121094 188.566406 188.972656 L 187.699219 188.972656 L 187.699219 192.101562 C 188.003906 192.234375 188.304688 192.367188 188.601562 192.503906 C 188.949219 192.207031 189.171875 191.8125 189.234375 191.347656 L 188.828125 191.347656 L 189.527344 190.113281 L 190.230469 191.347656 L 189.804688 191.347656 C 189.773438 191.90625 189.554688 192.394531 189.179688 192.761719 C 189.238281 192.789062 189.300781 192.816406 189.359375 192.84375 C 189.359375 192.84375 190.289062 193.261719 190.59375 193.398438 C 191.816406 193.949219 192.976562 194.472656 194.09375 194.898438 L 192.101562 192.910156 C 192.296875 192.554688 192.457031 192.175781 192.570312 191.78125 L 195.957031 191.78125 C 195.742188 192.988281 195.28125 194.113281 194.628906 195.101562 C 194.691406 195.121094 194.753906 195.148438 194.816406 195.167969 C 195.015625 195.242188 195.214844 195.308594 195.410156 195.375 C 196.351562 193.886719 196.898438 192.128906 196.898438 190.242188 C 196.898438 184.929688 192.574219 180.605469 187.257812 180.605469 C 182.304688 180.605469 178.214844 184.363281 177.683594 189.179688 C 179.546875 189.375 181.46875 189.792969 183.414062 190.4375 C 183.808594 190.5625 184.195312 190.699219 184.578125 190.839844 " fill-opacity="1" fill-rule="nonzero"/><path fill="#ffffff" d="M 187.734375 186.957031 C 187.734375 186.699219 187.519531 186.484375 187.257812 186.484375 C 186.996094 186.484375 186.785156 186.699219 186.785156 186.957031 C 186.785156 187.21875 186.996094 187.433594 187.257812 187.433594 C 187.519531 187.433594 187.734375 187.21875 187.734375 186.957031 " fill-opacity="1" fill-rule="nonzero"/><path fill="#ffffff" d="M 166.574219 174.539062 C 167.566406 175.390625 168.910156 175.601562 170.078125 175.179688 C 170.808594 175.777344 171.523438 176.390625 172.21875 177.027344 C 171.910156 177.996094 172.136719 179.097656 172.90625 179.867188 C 173.675781 180.636719 174.777344 180.863281 175.746094 180.558594 C 176.386719 181.261719 177.011719 181.984375 177.617188 182.722656 C 176.289062 184.425781 175.402344 186.488281 175.125 188.738281 C 174.175781 188.832031 173.222656 188.902344 172.273438 188.949219 C 171.800781 188.046875 170.863281 187.429688 169.773438 187.429688 C 168.6875 187.429688 167.746094 188.046875 167.277344 188.949219 C 166.339844 188.90625 165.398438 188.835938 164.460938 188.742188 C 163.933594 187.613281 162.824219 186.8125 161.519531 186.71875 C 162.136719 182.183594 163.925781 178.019531 166.574219 174.539062 Z M 183.734375 164.5 C 183.832031 165.808594 184.632812 166.914062 185.761719 167.445312 C 185.851562 168.382812 185.921875 169.320312 185.96875 170.257812 C 185.0625 170.726562 184.445312 171.671875 184.445312 172.757812 C 184.445312 173.84375 185.0625 174.785156 185.964844 175.253906 C 185.921875 176.203125 185.851562 177.15625 185.757812 178.105469 C 183.503906 178.382812 181.441406 179.269531 179.742188 180.601562 C 179 179.992188 178.277344 179.371094 177.574219 178.730469 C 177.882812 177.757812 177.652344 176.65625 176.882812 175.890625 C 176.117188 175.121094 175.011719 174.890625 174.042969 175.199219 C 173.410156 174.503906 172.796875 173.792969 172.199219 173.0625 C 172.621094 171.890625 172.40625 170.546875 171.558594 169.558594 C 175.035156 166.910156 179.203125 165.117188 183.734375 164.5 Z M 188.757812 167.445312 C 189.886719 166.914062 190.6875 165.808594 190.78125 164.5 C 195.316406 165.117188 199.480469 166.910156 202.960938 169.558594 C 202.113281 170.546875 201.898438 171.890625 202.320312 173.0625 C 201.722656 173.792969 201.105469 174.503906 200.472656 175.199219 C 199.503906 174.890625 198.402344 175.121094 197.632812 175.890625 C 196.863281 176.65625 196.636719 177.761719 196.941406 178.730469 C 196.238281 179.371094 195.515625 179.992188 194.777344 180.597656 C 193.074219 179.269531 191.011719 178.382812 188.761719 178.105469 C 188.667969 177.15625 188.597656 176.203125 188.554688 175.253906 C 189.453125 174.785156 190.070312 173.84375 190.070312 172.757812 C 190.070312 171.671875 189.453125 170.726562 188.550781 170.261719 C 188.59375 169.320312 188.664062 168.382812 188.757812 167.445312 Z M 207.941406 174.539062 C 210.589844 178.019531 212.378906 182.183594 213 186.71875 C 211.695312 186.8125 210.585938 187.613281 210.054688 188.742188 C 209.117188 188.835938 208.179688 188.90625 207.242188 188.949219 C 206.773438 188.046875 205.832031 187.425781 204.742188 187.429688 C 203.65625 187.429688 202.714844 188.046875 202.246094 188.949219 C 201.296875 188.90625 200.34375 188.832031 199.390625 188.738281 C 199.117188 186.488281 198.230469 184.425781 196.902344 182.722656 C 197.507812 181.984375 198.128906 181.261719 198.769531 180.558594 C 199.742188 180.863281 200.84375 180.636719 201.613281 179.867188 C 202.382812 179.097656 202.609375 177.996094 202.300781 177.027344 C 202.996094 176.394531 203.707031 175.777344 204.4375 175.179688 C 205.609375 175.601562 206.953125 175.390625 207.941406 174.539062 Z M 161.914062 192.617188 L 162.578125 192.28125 C 162.824219 192.15625 163.101562 192.023438 163.382812 191.894531 L 164.109375 191.558594 L 164.90625 191.222656 C 166.074219 190.742188 167.164062 190.363281 168.230469 190.058594 C 170.609375 189.386719 172.945312 189.050781 175.179688 189.050781 C 175.386719 189.050781 175.597656 189.054688 175.804688 189.058594 C 175.835938 189.058594 175.867188 189.0625 175.898438 189.0625 C 176.492188 183.316406 181.359375 178.820312 187.257812 178.820312 C 193.554688 178.820312 198.679688 183.945312 198.679688 190.242188 C 198.679688 192.296875 198.128906 194.226562 197.175781 195.894531 C 197.453125 195.964844 197.722656 196.027344 197.992188 196.082031 C 198.710938 194.765625 199.203125 193.300781 199.390625 191.742188 C 200.34375 191.648438 201.296875 191.578125 202.246094 191.535156 C 202.714844 192.4375 203.65625 193.054688 204.742188 193.054688 C 205.832031 193.054688 206.773438 192.433594 207.238281 191.535156 C 208.179688 191.578125 209.117188 191.648438 210.054688 191.738281 C 210.585938 192.867188 211.695312 193.671875 213 193.765625 C 213 193.765625 213.609375 193.800781 213.820312 193.6875 C 213.964844 192.558594 214.042969 191.410156 214.042969 190.242188 C 214.042969 175.472656 202.027344 163.457031 187.257812 163.457031 C 172.492188 163.457031 160.476562 175.472656 160.476562 190.242188 C 160.476562 191.257812 160.535156 192.261719 160.644531 193.25 L 160.988281 193.085938 L 161.914062 192.617188 " fill-opacity="1" fill-rule="nonzero"/><g clip-path="url(#f81ee2ac58)"><path fill="#ffffff" d="M 150.644531 191.15625 C 150.464844 191.285156 150.195312 191.453125 149.855469 191.632812 C 149.6875 191.71875 149.5 191.804688 149.300781 191.898438 C 149.097656 191.984375 148.878906 192.058594 148.648438 192.140625 C 148.417969 192.214844 148.167969 192.269531 147.914062 192.335938 C 147.667969 192.378906 147.421875 192.410156 147.175781 192.441406 L 147.152344 192.445312 L 147.109375 192.445312 L 147.058594 192.449219 L 146.746094 192.449219 C 146.613281 192.433594 146.476562 192.421875 146.34375 192.398438 C 146.210938 192.363281 146.082031 192.339844 145.957031 192.296875 C 145.835938 192.253906 145.710938 192.214844 145.597656 192.160156 C 145.140625 191.957031 144.765625 191.683594 144.480469 191.417969 C 144.335938 191.289062 144.214844 191.160156 144.113281 191.042969 C 144.007812 190.925781 143.925781 190.816406 143.863281 190.722656 C 143.730469 190.542969 143.671875 190.425781 143.671875 190.425781 C 143.671875 190.425781 143.773438 190.503906 143.953125 190.632812 C 144.042969 190.699219 144.152344 190.773438 144.277344 190.855469 C 144.335938 190.902344 144.40625 190.941406 144.476562 190.984375 C 144.546875 191.03125 144.621094 191.078125 144.699219 191.125 C 144.859375 191.214844 145.03125 191.308594 145.214844 191.394531 C 145.398438 191.484375 145.597656 191.566406 145.804688 191.636719 C 145.90625 191.675781 146.015625 191.699219 146.121094 191.730469 C 146.226562 191.757812 146.335938 191.773438 146.445312 191.796875 C 146.554688 191.808594 146.667969 191.820312 146.777344 191.832031 C 146.886719 191.828125 146.992188 191.828125 147.101562 191.828125 C 147.347656 191.792969 147.601562 191.777344 147.835938 191.742188 C 148.066406 191.703125 148.292969 191.660156 148.511719 191.617188 C 148.734375 191.566406 148.949219 191.515625 149.152344 191.464844 C 149.355469 191.40625 149.550781 191.363281 149.730469 191.3125 C 149.902344 191.253906 150.070312 191.210938 150.214844 191.167969 C 150.359375 191.117188 150.488281 191.082031 150.59375 191.050781 C 150.695312 191.015625 150.78125 190.992188 150.835938 190.972656 C 150.894531 190.953125 150.925781 190.945312 150.925781 190.945312 C 150.925781 190.945312 150.828125 191.027344 150.644531 191.15625 Z M 160.722656 165 C 160.503906 164.960938 160.195312 164.890625 159.828125 164.777344 C 159.648438 164.71875 159.453125 164.648438 159.246094 164.570312 C 159.042969 164.488281 158.835938 164.386719 158.617188 164.28125 C 158.402344 164.171875 158.183594 164.035156 157.957031 163.902344 C 157.75 163.757812 157.558594 163.605469 157.359375 163.453125 L 157.339844 163.4375 L 157.324219 163.425781 L 157.320312 163.417969 L 157.308594 163.410156 L 157.199219 163.300781 L 157.050781 163.15625 C 156.964844 163.050781 156.878906 162.945312 156.800781 162.835938 C 156.734375 162.71875 156.660156 162.609375 156.601562 162.492188 C 156.546875 162.371094 156.484375 162.257812 156.441406 162.140625 C 156.265625 161.671875 156.191406 161.214844 156.179688 160.824219 C 156.167969 160.632812 156.171875 160.453125 156.183594 160.296875 C 156.191406 160.140625 156.210938 160.007812 156.230469 159.894531 C 156.265625 159.675781 156.308594 159.554688 156.308594 159.554688 C 156.308594 159.554688 156.324219 159.679688 156.359375 159.898438 C 156.378906 160.003906 156.402344 160.136719 156.429688 160.28125 C 156.441406 160.355469 156.464844 160.433594 156.480469 160.515625 C 156.496094 160.597656 156.519531 160.683594 156.542969 160.773438 C 156.589844 160.949219 156.644531 161.136719 156.714844 161.328125 C 156.78125 161.523438 156.863281 161.71875 156.960938 161.914062 C 157.003906 162.015625 157.066406 162.105469 157.117188 162.207031 C 157.171875 162.300781 157.238281 162.390625 157.300781 162.484375 C 157.371094 162.570312 157.441406 162.65625 157.511719 162.742188 C 157.589844 162.816406 157.664062 162.890625 157.742188 162.964844 C 157.9375 163.117188 158.132812 163.285156 158.324219 163.429688 C 158.515625 163.5625 158.703125 163.691406 158.886719 163.816406 C 159.082031 163.9375 159.269531 164.050781 159.449219 164.164062 C 159.632812 164.261719 159.800781 164.371094 159.964844 164.460938 C 160.128906 164.542969 160.277344 164.632812 160.410156 164.703125 C 160.546875 164.769531 160.664062 164.835938 160.761719 164.886719 C 160.859375 164.933594 160.933594 164.976562 160.988281 165.003906 C 161.042969 165.03125 161.070312 165.046875 161.070312 165.046875 C 161.070312 165.046875 160.941406 165.035156 160.722656 165 Z M 185.605469 152.28125 C 185.519531 152.078125 185.441406 151.859375 185.363281 151.632812 C 185.289062 151.402344 185.230469 151.148438 185.167969 150.898438 C 185.121094 150.648438 185.09375 150.40625 185.058594 150.15625 L 185.054688 150.132812 L 185.054688 150.039062 L 185.050781 149.9375 L 185.050781 149.730469 C 185.066406 149.59375 185.082031 149.457031 185.101562 149.324219 C 185.136719 149.195312 185.160156 149.0625 185.203125 148.941406 C 185.25 148.820312 185.285156 148.695312 185.339844 148.582031 C 185.542969 148.121094 185.816406 147.746094 186.082031 147.464844 C 186.210938 147.320312 186.339844 147.195312 186.457031 147.09375 C 186.574219 146.992188 186.683594 146.910156 186.777344 146.84375 C 186.957031 146.714844 187.074219 146.65625 187.074219 146.65625 C 187.074219 146.65625 186.996094 146.757812 186.867188 146.933594 C 186.804688 147.023438 186.726562 147.132812 186.644531 147.257812 C 186.601562 147.320312 186.558594 147.390625 186.515625 147.460938 C 186.46875 147.527344 186.425781 147.605469 186.378906 147.683594 C 186.285156 147.839844 186.191406 148.011719 186.105469 148.199219 C 186.015625 148.382812 185.933594 148.582031 185.863281 148.785156 C 185.824219 148.890625 185.800781 148.996094 185.769531 149.101562 C 185.742188 149.210938 185.726562 149.320312 185.703125 149.429688 C 185.691406 149.539062 185.679688 149.652344 185.671875 149.761719 C 185.671875 149.867188 185.671875 149.976562 185.671875 150.082031 C 185.707031 150.328125 185.726562 150.582031 185.757812 150.820312 C 185.800781 151.050781 185.839844 151.273438 185.882812 151.492188 C 185.933594 151.714844 185.984375 151.929688 186.035156 152.136719 C 186.09375 152.335938 186.136719 152.535156 186.191406 152.710938 C 186.246094 152.886719 186.289062 153.054688 186.335938 153.199219 C 186.382812 153.34375 186.417969 153.472656 186.449219 153.574219 C 186.488281 153.679688 186.507812 153.765625 186.527344 153.820312 C 186.546875 153.878906 186.554688 153.90625 186.554688 153.90625 C 186.554688 153.90625 186.472656 153.8125 186.34375 153.628906 C 186.21875 153.445312 186.046875 153.179688 185.871094 152.839844 C 185.78125 152.667969 185.695312 152.484375 185.605469 152.28125 Z M 212.5 163.707031 C 212.542969 163.488281 212.609375 163.175781 212.722656 162.8125 C 212.78125 162.628906 212.851562 162.433594 212.929688 162.230469 C 213.011719 162.027344 213.117188 161.816406 213.21875 161.597656 C 213.328125 161.382812 213.46875 161.164062 213.601562 160.941406 C 213.742188 160.734375 213.894531 160.542969 214.046875 160.34375 L 214.0625 160.324219 L 214.074219 160.308594 L 214.089844 160.292969 L 214.125 160.253906 L 214.34375 160.035156 C 214.453125 159.949219 214.558594 159.863281 214.667969 159.785156 C 214.78125 159.714844 214.894531 159.640625 215.007812 159.582031 C 215.128906 159.53125 215.242188 159.46875 215.359375 159.425781 C 215.828125 159.246094 216.289062 159.175781 216.675781 159.160156 C 216.871094 159.148438 217.046875 159.152344 217.203125 159.167969 C 217.359375 159.175781 217.492188 159.195312 217.605469 159.214844 C 217.824219 159.25 217.945312 159.292969 217.945312 159.292969 C 217.945312 159.292969 217.820312 159.308594 217.601562 159.339844 C 217.496094 159.359375 217.367188 159.382812 217.21875 159.414062 C 217.144531 159.425781 217.066406 159.445312 216.984375 159.464844 C 216.902344 159.480469 216.816406 159.503906 216.730469 159.523438 C 216.554688 159.570312 216.363281 159.628906 216.171875 159.695312 C 215.976562 159.761719 215.78125 159.84375 215.585938 159.941406 C 215.484375 159.988281 215.394531 160.046875 215.296875 160.097656 C 215.199219 160.15625 215.113281 160.222656 215.019531 160.28125 C 214.933594 160.351562 214.847656 160.421875 214.757812 160.496094 C 214.683594 160.570312 214.609375 160.648438 214.535156 160.722656 C 214.382812 160.921875 214.21875 161.113281 214.074219 161.304688 C 213.941406 161.496094 213.8125 161.6875 213.683594 161.867188 C 213.566406 162.0625 213.449219 162.25 213.339844 162.429688 C 213.238281 162.613281 213.128906 162.785156 213.039062 162.949219 C 212.957031 163.113281 212.871094 163.261719 212.796875 163.394531 C 212.730469 163.53125 212.664062 163.644531 212.613281 163.742188 C 212.566406 163.839844 212.523438 163.917969 212.496094 163.972656 C 212.46875 164.023438 212.453125 164.050781 212.453125 164.050781 C 212.453125 164.050781 212.464844 163.925781 212.5 163.707031 Z M 157.445312 194.601562 C 157.238281 193.179688 157.128906 191.722656 157.128906 190.242188 C 157.128906 173.628906 170.644531 160.109375 187.257812 160.109375 C 203.875 160.109375 217.390625 173.628906 217.390625 190.242188 C 217.390625 191.046875 217.355469 191.847656 217.292969 192.636719 C 217.878906 192.472656 223.160156 191.199219 224.378906 190.957031 L 224.4375 190.945312 C 226.246094 190.621094 227.875 190.335938 229.503906 190.15625 C 229.941406 190.097656 230.363281 190.054688 230.785156 190.011719 C 230.734375 189.972656 230.664062 189.921875 230.566406 189.847656 C 230.476562 189.785156 230.367188 189.710938 230.242188 189.625 C 230.179688 189.582031 230.113281 189.542969 230.042969 189.496094 C 229.972656 189.449219 229.894531 189.40625 229.816406 189.359375 C 229.660156 189.269531 229.488281 189.175781 229.300781 189.085938 C 229.117188 188.996094 228.921875 188.917969 228.714844 188.847656 C 228.613281 188.808594 228.503906 188.785156 228.398438 188.753906 C 228.289062 188.726562 228.179688 188.710938 228.070312 188.6875 C 227.960938 188.675781 227.851562 188.664062 227.738281 188.652344 C 227.632812 188.65625 227.527344 188.65625 227.417969 188.65625 C 227.171875 188.6875 226.917969 188.707031 226.679688 188.738281 C 226.453125 188.78125 226.226562 188.824219 226.007812 188.863281 C 225.785156 188.917969 225.570312 188.96875 225.367188 189.015625 C 225.164062 189.078125 224.96875 189.121094 224.789062 189.171875 C 224.613281 189.230469 224.445312 189.273438 224.300781 189.316406 C 224.160156 189.367188 224.027344 189.402344 223.925781 189.433594 C 223.820312 189.46875 223.734375 189.492188 223.679688 189.511719 C 223.625 189.527344 223.59375 189.539062 223.59375 189.539062 C 223.59375 189.539062 223.691406 189.457031 223.871094 189.328125 C 224.054688 189.199219 224.324219 189.03125 224.660156 188.851562 C 224.832031 188.765625 225.019531 188.675781 225.21875 188.585938 C 225.421875 188.5 225.640625 188.425781 225.867188 188.34375 C 226.097656 188.269531 226.351562 188.214844 226.601562 188.148438 C 226.851562 188.101562 227.09375 188.074219 227.34375 188.042969 L 227.367188 188.039062 L 227.386719 188.035156 L 227.769531 188.035156 C 227.90625 188.050781 228.042969 188.0625 228.175781 188.085938 C 228.304688 188.117188 228.4375 188.144531 228.5625 188.183594 C 228.683594 188.230469 228.804688 188.269531 228.921875 188.320312 C 229.378906 188.527344 229.753906 188.800781 230.039062 189.066406 C 230.183594 189.195312 230.304688 189.324219 230.40625 189.441406 C 230.507812 189.558594 230.589844 189.667969 230.65625 189.757812 C 230.738281 189.875 230.789062 189.957031 230.816406 190.007812 C 231.054688 189.980469 231.292969 189.957031 231.523438 189.933594 L 231.929688 189.894531 L 231.976562 189.890625 C 231.457031 188.222656 227.824219 185.753906 224.59375 187.359375 C 222.765625 188.128906 221.035156 188.363281 219.703125 188.601562 C 219.691406 187.628906 218.945312 186.835938 217.996094 186.75 C 217.328125 180.824219 214.992188 175.402344 211.460938 170.972656 C 212.074219 170.242188 212.039062 169.152344 211.359375 168.460938 C 212.472656 167.683594 213.859375 166.625 215.699219 165.878906 C 219.363281 164.648438 220.046875 159.773438 218.921875 158.578125 C 217.726562 157.453125 212.855469 158.136719 211.621094 161.800781 C 210.871094 163.640625 209.816406 165.027344 209.039062 166.140625 C 208.347656 165.460938 207.257812 165.429688 206.523438 166.039062 C 202.097656 162.511719 196.675781 160.171875 190.75 159.503906 C 190.664062 158.554688 189.871094 157.808594 188.902344 157.796875 C 189.136719 156.464844 189.371094 154.734375 190.140625 152.90625 C 191.863281 149.441406 188.898438 145.511719 187.257812 145.460938 C 185.617188 145.511719 182.65625 149.441406 184.375 152.90625 C 185.144531 154.734375 185.378906 156.464844 185.617188 157.796875 C 184.648438 157.808594 183.855469 158.554688 183.769531 159.503906 C 177.84375 160.171875 172.421875 162.511719 167.992188 166.042969 C 167.261719 165.429688 166.171875 165.460938 165.476562 166.140625 C 164.703125 165.027344 163.644531 163.640625 162.894531 161.804688 C 161.664062 158.136719 156.792969 157.453125 155.59375 158.578125 C 154.46875 159.773438 155.15625 164.648438 158.820312 165.878906 C 160.65625 166.625 162.046875 167.6875 163.15625 168.460938 C 162.476562 169.15625 162.445312 170.242188 163.058594 170.976562 C 159.527344 175.40625 157.1875 180.824219 156.523438 186.753906 C 155.570312 186.839844 154.824219 187.628906 154.8125 188.601562 C 153.480469 188.363281 151.75 188.128906 149.921875 187.359375 C 146.460938 185.636719 142.53125 188.601562 142.476562 190.242188 C 142.53125 191.882812 146.460938 194.84375 149.921875 193.125 C 151.75 192.351562 153.480469 192.121094 154.8125 191.882812 C 154.824219 192.851562 155.570312 193.644531 156.523438 193.730469 C 156.566406 194.113281 156.617188 194.496094 156.671875 194.875 C 156.875 194.804688 157.082031 194.738281 157.28125 194.664062 C 157.335938 194.644531 157.390625 194.625 157.445312 194.601562 " fill-opacity="1" fill-rule="nonzero"/></g><path fill="#ffffff" d="M 187.257812 160.589844 C 186.601562 160.589844 186.070312 161.125 186.070312 161.78125 C 186.070312 162.4375 186.601562 162.972656 187.257812 162.972656 C 187.917969 162.972656 188.449219 162.4375 188.449219 161.78125 C 188.449219 161.125 187.917969 160.589844 187.257812 160.589844 " fill-opacity="1" fill-rule="nonzero"/><path fill="#ffffff" d="M 175.914062 162.847656 C 175.304688 163.097656 175.015625 163.796875 175.269531 164.402344 C 175.519531 165.011719 176.214844 165.300781 176.824219 165.046875 C 177.429688 164.796875 177.71875 164.097656 177.46875 163.492188 C 177.21875 162.882812 176.519531 162.59375 175.914062 162.847656 " fill-opacity="1" fill-rule="nonzero"/><path fill="#ffffff" d="M 166.292969 169.273438 C 165.828125 169.738281 165.828125 170.492188 166.292969 170.960938 C 166.757812 171.425781 167.511719 171.421875 167.976562 170.957031 C 168.441406 170.492188 168.441406 169.738281 167.976562 169.273438 C 167.511719 168.808594 166.757812 168.808594 166.292969 169.273438 " fill-opacity="1" fill-rule="nonzero"/><path fill="#ffffff" d="M 161.421875 178.25 C 160.8125 178 160.117188 178.285156 159.867188 178.894531 C 159.613281 179.503906 159.902344 180.199219 160.511719 180.449219 C 161.117188 180.703125 161.8125 180.414062 162.066406 179.804688 C 162.316406 179.199219 162.027344 178.5 161.421875 178.25 " fill-opacity="1" fill-rule="nonzero"/><path fill="#ffffff" d="M 158.800781 189.050781 C 158.140625 189.050781 157.609375 189.582031 157.609375 190.242188 C 157.609375 190.898438 158.140625 191.433594 158.800781 191.433594 C 159.457031 191.433594 159.988281 190.898438 159.988281 190.242188 C 159.988281 189.582031 159.457031 189.050781 158.800781 189.050781 " fill-opacity="1" fill-rule="nonzero"/><path fill="#ffffff" d="M 215.71875 189.050781 C 215.0625 189.050781 214.527344 189.585938 214.527344 190.242188 C 214.527344 190.898438 215.0625 191.433594 215.71875 191.433594 C 216.375 191.433594 216.910156 190.898438 216.910156 190.242188 C 216.910156 189.585938 216.375 189.050781 215.71875 189.050781 " fill-opacity="1" fill-rule="nonzero"/><path fill="#ffffff" d="M 214.652344 178.894531 C 214.402344 178.285156 213.703125 178 213.097656 178.25 C 212.488281 178.503906 212.203125 179.199219 212.453125 179.804688 C 212.703125 180.414062 213.402344 180.703125 214.007812 180.453125 C 214.617188 180.199219 214.90625 179.503906 214.652344 178.894531 " fill-opacity="1" fill-rule="nonzero"/><path fill="#ffffff" d="M 206.542969 169.273438 C 206.078125 169.742188 206.078125 170.496094 206.542969 170.960938 C 207.007812 171.425781 207.761719 171.425781 208.226562 170.960938 C 208.691406 170.496094 208.691406 169.742188 208.226562 169.273438 C 207.761719 168.808594 207.007812 168.8125 206.542969 169.273438 " fill-opacity="1" fill-rule="nonzero"/><path fill="#ffffff" d="M 198.605469 162.847656 C 198 162.597656 197.300781 162.886719 197.050781 163.492188 C 196.800781 164.101562 197.085938 164.796875 197.695312 165.046875 C 198.300781 165.300781 199 165.011719 199.25 164.402344 C 199.503906 163.796875 199.214844 163.097656 198.605469 162.847656 " fill-opacity="1" fill-rule="nonzero"/><g clip-path="url(#bc911be993)"><path fill="#ffffff" d="M 250.746094 194.566406 C 250.746094 194.566406 250.222656 194.535156 249.253906 194.542969 C 248.285156 194.558594 246.878906 194.617188 245.105469 194.792969 C 244.21875 194.875 243.246094 195 242.1875 195.140625 C 241.132812 195.300781 239.996094 195.472656 238.792969 195.703125 C 236.378906 196.148438 233.691406 196.757812 230.800781 197.539062 C 227.910156 198.332031 224.8125 199.28125 221.585938 200.429688 C 219.964844 200.984375 218.328125 201.628906 216.648438 202.261719 C 216.226562 202.417969 215.808594 202.597656 215.386719 202.765625 C 214.953125 202.941406 214.511719 203.117188 214.074219 203.296875 C 213.851562 203.378906 213.632812 203.464844 213.414062 203.550781 L 213.082031 203.679688 L 212.710938 203.8125 C 212.203125 203.996094 211.695312 204.175781 211.203125 204.328125 C 210.207031 204.65625 209.171875 204.925781 208.113281 205.164062 C 207.058594 205.40625 205.960938 205.578125 204.847656 205.699219 C 203.734375 205.824219 202.59375 205.882812 201.445312 205.851562 C 200.296875 205.828125 199.136719 205.734375 197.992188 205.546875 C 195.695312 205.1875 193.464844 204.5 191.417969 203.625 C 189.367188 202.746094 187.46875 201.742188 185.6875 200.753906 C 183.90625 199.765625 182.203125 198.839844 180.511719 198.117188 C 178.824219 197.390625 177.132812 196.894531 175.402344 196.707031 C 173.675781 196.511719 171.90625 196.613281 170.15625 196.972656 C 169.277344 197.152344 168.410156 197.394531 167.546875 197.671875 L 166.90625 197.886719 L 166.269531 198.125 C 166.054688 198.203125 165.84375 198.285156 165.632812 198.375 L 164.980469 198.644531 L 164.320312 198.921875 L 163.988281 199.058594 L 163.632812 199.199219 C 163.394531 199.289062 163.15625 199.382812 162.921875 199.476562 C 162.6875 199.558594 162.457031 199.644531 162.222656 199.726562 C 161.292969 200.058594 160.359375 200.359375 159.429688 200.617188 C 157.566406 201.144531 155.710938 201.53125 153.886719 201.777344 C 150.242188 202.273438 146.757812 202.257812 143.609375 201.894531 C 140.457031 201.550781 137.640625 200.871094 135.21875 200.109375 C 132.792969 199.351562 130.765625 198.472656 129.140625 197.695312 C 127.511719 196.90625 126.289062 196.203125 125.476562 195.6875 C 124.664062 195.179688 124.253906 194.875 124.253906 194.875 C 124.253906 194.875 124.699219 195.121094 125.570312 195.523438 C 126.445312 195.917969 127.730469 196.476562 129.414062 197.066406 C 131.097656 197.652344 133.175781 198.257812 135.589844 198.757812 C 138.007812 199.25 140.765625 199.625 143.769531 199.683594 C 146.769531 199.738281 150.011719 199.492188 153.324219 198.757812 C 154.976562 198.382812 156.648438 197.917969 158.308594 197.308594 C 159.140625 197.007812 159.96875 196.675781 160.789062 196.3125 L 161.40625 196.035156 L 162.003906 195.75 L 162.300781 195.605469 L 162.621094 195.445312 L 163.261719 195.121094 L 163.917969 194.789062 C 164.144531 194.671875 164.375 194.5625 164.609375 194.457031 L 165.3125 194.132812 L 166.03125 193.828125 C 167 193.429688 168.003906 193.066406 169.050781 192.769531 C 171.140625 192.179688 173.40625 191.816406 175.722656 191.882812 C 178.035156 191.933594 180.347656 192.410156 182.476562 193.109375 C 184.617188 193.804688 186.582031 194.707031 188.449219 195.546875 C 190.320312 196.386719 192.082031 197.21875 193.832031 197.828125 C 195.578125 198.449219 197.28125 198.902344 198.992188 199.125 C 202.398438 199.589844 205.867188 199.144531 209.234375 198.179688 C 209.660156 198.066406 210.058594 197.9375 210.457031 197.8125 L 210.761719 197.71875 L 211.097656 197.601562 C 211.320312 197.523438 211.546875 197.445312 211.765625 197.367188 C 212.210938 197.21875 212.652344 197.066406 213.09375 196.917969 C 213.546875 196.765625 213.996094 196.601562 214.449219 196.460938 C 216.257812 195.867188 218.046875 195.347656 219.804688 194.890625 C 221.558594 194.429688 223.289062 194.058594 224.964844 193.722656 C 226.652344 193.421875 228.28125 193.136719 229.863281 192.960938 C 230.648438 192.855469 231.425781 192.785156 232.183594 192.710938 C 232.945312 192.65625 233.679688 192.589844 234.40625 192.558594 C 235.851562 192.472656 237.230469 192.472656 238.519531 192.484375 C 241.105469 192.535156 243.347656 192.769531 245.171875 193.066406 C 246.996094 193.375 248.398438 193.738281 249.335938 194.046875 C 250.273438 194.339844 250.746094 194.566406 250.746094 194.566406 " fill-opacity="1" fill-rule="nonzero"/></g><g transform="matrix(1, 0, 0, 1, 76, 188)"><g clip-path="url(#2734d829f6)"><g fill="#ffffff" fill-opacity="1"><g transform="translate(0.605904, 64.360914)"><g><path d="M 1.34375 0 L 1.34375 -0.609375 L 2.125 -0.796875 C 2.894531 -0.992188 3.503906 -1.34375 3.953125 -1.84375 C 4.398438 -2.351562 4.625 -3.015625 4.625 -3.828125 C 4.625 -5.328125 4.632812 -6.816406 4.65625 -8.296875 C 4.675781 -9.785156 4.6875 -11.28125 4.6875 -12.78125 L 4.6875 -28.046875 L 1.28125 -28.046875 L 1.28125 -28.71875 L 2.609375 -28.96875 C 3.421875 -29.039062 4.007812 -29.320312 4.375 -29.8125 C 4.738281 -30.300781 5.003906 -30.972656 5.171875 -31.828125 C 5.578125 -33.398438 6.175781 -34.785156 6.96875 -35.984375 C 7.757812 -37.179688 8.660156 -38.289062 9.671875 -39.3125 C 11.210938 -40.769531 12.84375 -41.789062 14.5625 -42.375 C 16.289062 -42.96875 17.988281 -43.265625 19.65625 -43.265625 C 21.28125 -43.265625 22.757812 -42.925781 24.09375 -42.25 C 25.4375 -41.582031 26.109375 -40.476562 26.109375 -38.9375 C 26.109375 -37.84375 25.78125 -36.976562 25.125 -36.34375 C 24.476562 -35.71875 23.566406 -35.40625 22.390625 -35.40625 C 21.421875 -35.40625 20.53125 -35.671875 19.71875 -36.203125 C 18.90625 -36.734375 18.113281 -37.664062 17.34375 -39 L 16.484375 -40.03125 C 16.035156 -40.601562 15.585938 -40.878906 15.140625 -40.859375 C 14.703125 -40.835938 14.378906 -40.503906 14.171875 -39.859375 C 13.890625 -38.429688 13.675781 -36.765625 13.53125 -34.859375 C 13.394531 -32.953125 13.328125 -31.085938 13.328125 -29.265625 L 20.140625 -29.265625 L 20.140625 -28.046875 L 13.328125 -28.046875 L 13.328125 -3.953125 C 13.328125 -2.410156 14.140625 -1.414062 15.765625 -0.96875 L 17.28125 -0.609375 L 17.28125 0 Z M 1.34375 0 "/></g></g></g><g fill="#ffffff" fill-opacity="1"><g transform="translate(21.47235, 64.360914)"><g><path d="M 16.609375 0.90625 C 13.523438 0.90625 10.847656 0.269531 8.578125 -1 C 6.304688 -2.28125 4.550781 -4.097656 3.3125 -6.453125 C 2.070312 -8.804688 1.453125 -11.5625 1.453125 -14.71875 C 1.453125 -17.882812 2.113281 -20.625 3.4375 -22.9375 C 4.757812 -25.25 6.566406 -27.03125 8.859375 -28.28125 C 11.148438 -29.539062 13.734375 -30.171875 16.609375 -30.171875 C 19.492188 -30.171875 22.070312 -29.550781 24.34375 -28.3125 C 26.613281 -27.082031 28.40625 -25.3125 29.71875 -23 C 31.039062 -20.6875 31.703125 -17.925781 31.703125 -14.71875 C 31.703125 -11.519531 31.082031 -8.753906 29.84375 -6.421875 C 28.601562 -4.085938 26.859375 -2.28125 24.609375 -1 C 22.359375 0.269531 19.691406 0.90625 16.609375 0.90625 Z M 16.609375 -0.296875 C 18.023438 -0.296875 19.160156 -0.703125 20.015625 -1.515625 C 20.867188 -2.328125 21.488281 -3.765625 21.875 -5.828125 C 22.257812 -7.898438 22.453125 -10.828125 22.453125 -14.609375 C 22.453125 -18.421875 22.257812 -21.359375 21.875 -23.421875 C 21.488281 -25.492188 20.867188 -26.9375 20.015625 -27.75 C 19.160156 -28.5625 18.023438 -28.96875 16.609375 -28.96875 C 15.191406 -28.96875 14.046875 -28.5625 13.171875 -27.75 C 12.296875 -26.9375 11.664062 -25.492188 11.28125 -23.421875 C 10.894531 -21.359375 10.703125 -18.421875 10.703125 -14.609375 C 10.703125 -10.828125 10.894531 -7.898438 11.28125 -5.828125 C 11.664062 -3.765625 12.296875 -2.328125 13.171875 -1.515625 C 14.046875 -0.703125 15.191406 -0.296875 16.609375 -0.296875 Z M 16.609375 -0.296875 "/></g></g></g><g fill="#ffffff" fill-opacity="1"><g transform="translate(54.627483, 64.360914)"><g><path d="M 1.21875 0 L 1.21875 -0.609375 L 2.125 -0.859375 C 2.9375 -1.097656 3.492188 -1.457031 3.796875 -1.9375 C 4.109375 -2.425781 4.265625 -3.054688 4.265625 -3.828125 L 4.265625 -22.875 C 4.265625 -23.769531 4.109375 -24.429688 3.796875 -24.859375 C 3.492188 -25.285156 2.9375 -25.578125 2.125 -25.734375 L 1.21875 -25.984375 L 1.21875 -26.59375 L 11.6875 -30.125 L 12.296875 -29.515625 L 12.84375 -24.28125 L 12.84375 -23.796875 C 13.40625 -24.929688 14.140625 -25.972656 15.046875 -26.921875 C 15.960938 -27.878906 16.976562 -28.660156 18.09375 -29.265625 C 19.21875 -29.867188 20.328125 -30.171875 21.421875 -30.171875 C 22.960938 -30.171875 24.132812 -29.742188 24.9375 -28.890625 C 25.75 -28.046875 26.15625 -26.972656 26.15625 -25.671875 C 26.15625 -24.296875 25.757812 -23.234375 24.96875 -22.484375 C 24.1875 -21.734375 23.242188 -21.359375 22.140625 -21.359375 C 20.441406 -21.359375 18.941406 -22.207031 17.640625 -23.90625 L 17.515625 -24.03125 C 17.117188 -24.601562 16.65625 -24.914062 16.125 -24.96875 C 15.59375 -25.03125 15.101562 -24.78125 14.65625 -24.21875 C 14.257812 -23.851562 13.925781 -23.414062 13.65625 -22.90625 C 13.394531 -22.394531 13.144531 -21.816406 12.90625 -21.171875 L 12.90625 -4.203125 C 12.90625 -2.578125 13.613281 -1.5625 15.03125 -1.15625 L 16.96875 -0.609375 L 16.96875 0 Z M 1.21875 0 "/></g></g></g><g fill="#ffffff" fill-opacity="1"><g transform="translate(81.455767, 64.360914)"><g><path d="M 16.484375 -30.171875 C 19.117188 -30.171875 21.367188 -29.632812 23.234375 -28.5625 C 25.109375 -27.488281 26.539062 -26.03125 27.53125 -24.1875 C 28.519531 -22.34375 29.015625 -20.242188 29.015625 -17.890625 C 29.015625 -17.441406 28.992188 -16.984375 28.953125 -16.515625 C 28.921875 -16.046875 28.84375 -15.628906 28.71875 -15.265625 L 10.59375 -15.265625 C 10.625 -10.890625 11.398438 -7.738281 12.921875 -5.8125 C 14.441406 -3.882812 16.707031 -2.921875 19.71875 -2.921875 C 21.738281 -2.921875 23.378906 -3.242188 24.640625 -3.890625 C 25.898438 -4.546875 27.078125 -5.5 28.171875 -6.75 L 28.78125 -6.203125 C 27.519531 -3.972656 25.84375 -2.226562 23.75 -0.96875 C 21.664062 0.28125 19.164062 0.90625 16.25 0.90625 C 13.363281 0.90625 10.804688 0.289062 8.578125 -0.9375 C 6.347656 -2.175781 4.601562 -3.953125 3.34375 -6.265625 C 2.082031 -8.578125 1.453125 -11.335938 1.453125 -14.546875 C 1.453125 -17.867188 2.179688 -20.695312 3.640625 -23.03125 C 5.109375 -25.363281 6.988281 -27.132812 9.28125 -28.34375 C 11.570312 -29.5625 13.972656 -30.171875 16.484375 -30.171875 Z M 16.3125 -28.96875 C 15.132812 -28.96875 14.128906 -28.609375 13.296875 -27.890625 C 12.460938 -27.179688 11.8125 -25.925781 11.34375 -24.125 C 10.875 -22.320312 10.625 -19.773438 10.59375 -16.484375 L 20.984375 -16.484375 C 21.390625 -20.910156 21.226562 -24.097656 20.5 -26.046875 C 19.769531 -27.992188 18.375 -28.96875 16.3125 -28.96875 Z M 16.3125 -28.96875 "/></g></g></g><g fill="#ffffff" fill-opacity="1"><g transform="translate(112.299177, 64.360914)"><g><path d="M 16.3125 0.90625 C 13.550781 0.90625 11.046875 0.3125 8.796875 -0.875 C 6.546875 -2.070312 4.757812 -3.816406 3.4375 -6.109375 C 2.113281 -8.398438 1.453125 -11.210938 1.453125 -14.546875 C 1.453125 -17.828125 2.171875 -20.632812 3.609375 -22.96875 C 5.054688 -25.300781 6.984375 -27.082031 9.390625 -28.3125 C 11.804688 -29.550781 14.457031 -30.171875 17.34375 -30.171875 C 19.695312 -30.171875 21.679688 -29.785156 23.296875 -29.015625 C 24.921875 -28.242188 26.160156 -27.238281 27.015625 -26 C 27.867188 -24.769531 28.296875 -23.484375 28.296875 -22.140625 C 28.296875 -21.003906 27.945312 -20.125 27.25 -19.5 C 26.5625 -18.875 25.671875 -18.5625 24.578125 -18.5625 C 23.398438 -18.5625 22.445312 -18.984375 21.71875 -19.828125 C 20.988281 -20.679688 20.5625 -21.800781 20.4375 -23.1875 C 20.394531 -24.070312 20.414062 -24.828125 20.5 -25.453125 C 20.582031 -26.085938 20.582031 -26.726562 20.5 -27.375 C 20.34375 -28.0625 20.09375 -28.515625 19.75 -28.734375 C 19.40625 -28.960938 18.925781 -29.078125 18.3125 -29.078125 C 15.84375 -29.078125 13.925781 -28.003906 12.5625 -25.859375 C 11.207031 -23.710938 10.53125 -20.285156 10.53125 -15.578125 C 10.53125 -11.484375 11.289062 -8.347656 12.8125 -6.171875 C 14.332031 -4.003906 16.671875 -2.921875 19.828125 -2.921875 C 21.734375 -2.921875 23.273438 -3.265625 24.453125 -3.953125 C 25.628906 -4.640625 26.765625 -5.675781 27.859375 -7.0625 L 28.46875 -6.578125 C 27.457031 -4.179688 25.894531 -2.332031 23.78125 -1.03125 C 21.675781 0.257812 19.1875 0.90625 16.3125 0.90625 Z M 16.3125 0.90625 "/></g></g></g><g fill="#ffffff" fill-opacity="1"><g transform="translate(142.351725, 64.360914)"><g><path d="M 10.09375 0.90625 C 7.75 0.90625 5.773438 0.238281 4.171875 -1.09375 C 2.566406 -2.4375 1.765625 -4.363281 1.765625 -6.875 C 1.765625 -8.78125 2.738281 -10.535156 4.6875 -12.140625 C 6.632812 -13.742188 9.695312 -14.953125 13.875 -15.765625 C 14.519531 -15.878906 15.25 -16.003906 16.0625 -16.140625 C 16.875 -16.285156 17.726562 -16.441406 18.625 -16.609375 L 18.625 -21.421875 C 18.625 -24.171875 18.285156 -26.101562 17.609375 -27.21875 C 16.941406 -28.34375 15.898438 -28.90625 14.484375 -28.90625 C 13.503906 -28.90625 12.726562 -28.585938 12.15625 -27.953125 C 11.59375 -27.328125 11.234375 -26.242188 11.078125 -24.703125 L 10.953125 -24.03125 C 10.867188 -22.289062 10.441406 -21.015625 9.671875 -20.203125 C 8.898438 -19.390625 7.945312 -18.984375 6.8125 -18.984375 C 5.757812 -18.984375 4.882812 -19.304688 4.1875 -19.953125 C 3.5 -20.609375 3.15625 -21.484375 3.15625 -22.578125 C 3.15625 -24.234375 3.734375 -25.628906 4.890625 -26.765625 C 6.046875 -27.898438 7.578125 -28.75 9.484375 -29.3125 C 11.390625 -29.882812 13.460938 -30.171875 15.703125 -30.171875 C 19.304688 -30.171875 22.09375 -29.289062 24.0625 -27.53125 C 26.03125 -25.769531 27.015625 -22.898438 27.015625 -18.921875 L 27.015625 -5.46875 C 27.015625 -3.644531 27.863281 -2.734375 29.5625 -2.734375 L 30.90625 -2.734375 L 31.453125 -2.25 C 30.679688 -1.28125 29.835938 -0.53125 28.921875 0 C 28.015625 0.53125 26.726562 0.796875 25.0625 0.796875 C 23.28125 0.796875 21.867188 0.378906 20.828125 -0.453125 C 19.796875 -1.285156 19.117188 -2.390625 18.796875 -3.765625 C 17.578125 -2.472656 16.328125 -1.367188 15.046875 -0.453125 C 13.773438 0.453125 12.125 0.90625 10.09375 0.90625 Z M 13.8125 -2.796875 C 14.625 -2.796875 15.382812 -2.988281 16.09375 -3.375 C 16.800781 -3.757812 17.644531 -4.359375 18.625 -5.171875 L 18.625 -15.390625 C 18.21875 -15.304688 17.8125 -15.222656 17.40625 -15.140625 C 17 -15.066406 16.53125 -14.988281 16 -14.90625 C 14.132812 -14.414062 12.644531 -13.59375 11.53125 -12.4375 C 10.414062 -11.28125 9.859375 -9.726562 9.859375 -7.78125 C 9.859375 -6.125 10.242188 -4.878906 11.015625 -4.046875 C 11.785156 -3.210938 12.71875 -2.796875 13.8125 -2.796875 Z M 13.8125 -2.796875 "/></g></g></g><g fill="#ffffff" fill-opacity="1"><g transform="translate(173.864318, 64.360914)"><g><path d="M 11.75 0.90625 C 9.757812 0.90625 7.972656 0.671875 6.390625 0.203125 C 4.804688 -0.253906 3.347656 -0.828125 2.015625 -1.515625 L 2.0625 -8.765625 L 2.671875 -8.765625 L 4.75 -5.109375 C 5.632812 -3.484375 6.613281 -2.273438 7.6875 -1.484375 C 8.769531 -0.691406 10.140625 -0.296875 11.796875 -0.296875 C 13.742188 -0.296875 15.316406 -0.734375 16.515625 -1.609375 C 17.710938 -2.484375 18.3125 -3.648438 18.3125 -5.109375 C 18.3125 -6.453125 17.882812 -7.546875 17.03125 -8.390625 C 16.1875 -9.242188 14.609375 -10.015625 12.296875 -10.703125 L 9.734375 -11.5 C 7.265625 -12.226562 5.316406 -13.363281 3.890625 -14.90625 C 2.472656 -16.445312 1.765625 -18.332031 1.765625 -20.5625 C 1.765625 -23.238281 2.816406 -25.507812 4.921875 -27.375 C 7.035156 -29.238281 10.0625 -30.171875 14 -30.171875 C 15.570312 -30.171875 17.054688 -30 18.453125 -29.65625 C 19.859375 -29.3125 21.210938 -28.796875 22.515625 -28.109375 L 22.140625 -21.53125 L 21.53125 -21.53125 L 19.40625 -25.3125 C 18.632812 -26.644531 17.875 -27.585938 17.125 -28.140625 C 16.375 -28.691406 15.25 -28.96875 13.75 -28.96875 C 12.375 -28.96875 11.078125 -28.582031 9.859375 -27.8125 C 8.640625 -27.039062 8.03125 -25.941406 8.03125 -24.515625 C 8.03125 -23.140625 8.546875 -22.046875 9.578125 -21.234375 C 10.617188 -20.421875 12.148438 -19.671875 14.171875 -18.984375 L 16.921875 -18.1875 C 19.835938 -17.300781 21.921875 -16.078125 23.171875 -14.515625 C 24.429688 -12.953125 25.0625 -11.078125 25.0625 -8.890625 C 25.0625 -5.921875 23.894531 -3.546875 21.5625 -1.765625 C 19.238281 0.015625 15.96875 0.90625 11.75 0.90625 Z M 11.75 0.90625 "/></g></g></g><g fill="#ffffff" fill-opacity="1"><g transform="translate(200.38843, 64.360914)"><g><path d="M 12.78125 0.90625 C 10.1875 0.90625 8.164062 0.257812 6.71875 -1.03125 C 5.28125 -2.332031 4.5625 -4.398438 4.5625 -7.234375 L 4.5625 -28.046875 L 0.359375 -28.046875 L 0.359375 -28.65625 L 1.828125 -28.90625 C 3.085938 -29.1875 4.171875 -29.585938 5.078125 -30.109375 C 5.992188 -30.640625 6.894531 -31.351562 7.78125 -32.25 L 12.78125 -37.78125 L 13.390625 -37.78125 L 13.203125 -29.265625 L 20.015625 -29.265625 L 20.015625 -28.046875 L 13.140625 -28.046875 L 13.140625 -6.140625 C 13.140625 -4.722656 13.453125 -3.648438 14.078125 -2.921875 C 14.710938 -2.191406 15.515625 -1.828125 16.484375 -1.828125 C 17.335938 -1.828125 18.085938 -2.039062 18.734375 -2.46875 C 19.390625 -2.894531 20.039062 -3.472656 20.6875 -4.203125 L 21.296875 -3.59375 C 20.484375 -2.207031 19.363281 -1.109375 17.9375 -0.296875 C 16.519531 0.503906 14.800781 0.90625 12.78125 0.90625 Z M 12.78125 0.90625 "/></g></g></g></g></g></svg>